# xmcd
#
# Track frame offsets:
#	150
#	10146
#	24668
#	41180
#	55694
#	68160
#	83208
#	96061
#	108014
#	121790
#	142089
#	157410
#
# Disc length: 2266 seconds
# Revision: 1
# Processed by: cddbd v1.5.2PL0 Copyright (c) Steve Scherf et al.
# Submitted via: dBpowerAMP V12.0
#
DISCID=9c08d80c
DTITLE=Ralph Stanley II and The Clinch Mountain Boys - Ralph Stanley II and The Clinch Mountain Boys
DYEAR=2017
DGENRE=Bluegrass
TTITLE0=Henry Brown
TTITLE1=Road Going Home
TTITLE2=On Boot Hill
TTITLE3=Wave On Old Glory
TTITLE4=Fortune Fame and Freedom
TTITLE5=Don't Point Your Finger
TTITLE6=Goin' Round This World
TTITLE7=Life To Go
TTITLE8=Raining In My Heart
TTITLE9=Mary Merry Christmas
TTITLE10=No More The Moon Shines On Lorena
TTITLE11=Cannonball Blues
EXTD=
EXTT0=
EXTT1=
EXTT2=
EXTT3=
EXTT4=
EXTT5=
EXTT6=
EXTT7=
EXTT8=
EXTT9=
EXTT10=
EXTT11=
PLAYORDER=
